<?xml version="1.0" encoding="UTF-8"?><svg id="Layer_1" xmlns="http://www.w3.org/2000/svg" viewBox="0 0 469.86 302.98"><defs><style>.cls-1,.cls-2{fill:#2876bd;}.cls-3,.cls-4{fill:#455069;}.cls-2{stroke:#2876bd;}.cls-2,.cls-4{stroke-miterlimit:10;}.cls-4{stroke:#455069;}</style></defs><path class="cls-3" d="M151.49,74.95c-42.27,0-76.54,34.27-76.54,76.54s34.27,76.54,76.54,76.54,76.54-34.27,76.54-76.54-34.27-76.54-76.54-76.54Zm0,113.24c-20.26,0-36.69-16.43-36.69-36.69s16.43-36.69,36.69-36.69,36.69,16.43,36.69,36.69-16.43,36.69-36.69,36.69Z"/><path class="cls-1" d="M233.11,228.04c-20.42,21.77-49.42,35.38-81.62,35.38-61.82,0-111.93-50.11-111.93-111.93S89.68,39.56,151.49,39.56c32.2,0,61.2,13.62,81.62,35.38h49.09C255.9,30.12,207.23,0,151.49,0,67.82,0,0,67.82,0,151.49s67.82,151.49,151.49,151.49c55.73,0,104.41-30.12,130.71-74.95h-49.09Z"/><g><g><path class="cls-2" d="M284.52,103.44l-22.13,21.8v18.12h-9.91v-17.93l-22.23-21.99h13.38l14.53,14.91,14.72-14.91h11.64Z"/><path class="cls-2" d="M340.61,135.53c0,5.22-4.2,7.83-12.6,7.83h-33.87v-39.92h36.56c6.41,0,9.62,2.58,9.62,7.74v4.81c0,3.77-2.31,6.04-6.93,6.79,4.81,.75,7.22,3.3,7.22,7.64v5.1Zm-10.01-18.97v-3.78c0-1.89-1.48-2.83-4.43-2.83h-22.23v9.44h22.23c2.95,0,4.43-.94,4.43-2.83Zm.38,16.04v-3.02c0-1.51-.45-2.52-1.35-3.02-.64-.38-1.8-.57-3.46-.57h-22.23v10.19h22.23c1.67,0,2.82-.19,3.46-.57,.9-.5,1.35-1.51,1.35-3.02Z"/><path class="cls-2" d="M401.52,143.36h-44.17v-39.92h43.68v7.08h-33.68v8.68h19.63v6.89h-19.63v9.81h34.16v7.46Z"/><path class="cls-2" d="M466.28,143.36h-14.24l-17.03-15.1h-9.33v15.1h-9.81v-39.92h36.66c6.35,0,9.53,2.58,9.53,7.74v9.44c0,3.9-1.7,6.29-5.1,7.17-1.15,.32-4.49,.47-10.01,.47l19.34,15.1Zm-13.47-25.2v-4.62c0-2.14-1.51-3.21-4.52-3.21h-22.61v11.04h22.61c3.01,0,4.52-1.07,4.52-3.21Z"/></g><g><path class="cls-4" d="M290.28,177.76c0,5.16-3.18,7.74-9.53,7.74h-26.85v15.57h-9.81v-39.92h36.66c3.14,0,5.45,.5,6.93,1.51,1.73,1.2,2.6,3.27,2.6,6.23v8.87Zm-9.24-2.36v-4.15c0-2.14-1.51-3.21-4.52-3.21h-22.61v10.57h22.61c3.01,0,4.52-1.07,4.52-3.21Z"/><path class="cls-4" d="M351.19,191.63c0,3.77-.77,6.29-2.31,7.55-1.54,1.26-4.3,1.89-8.28,1.89h-26.46c-4.36,0-7.23-.71-8.61-2.12-1.38-1.42-2.07-4.23-2.07-8.45l8.85-1.6v4.72h29.92v-9.15h-26.36c-3.98,0-6.7-.6-8.18-1.79-1.67-1.32-2.5-3.87-2.5-7.64v-4.44c0-3.78,.83-6.32,2.5-7.64,1.48-1.19,4.2-1.79,8.18-1.79h24.15c4.1,0,6.91,.63,8.42,1.89,1.51,1.26,2.26,3.84,2.26,7.74l-8.56,1.79v-4.25h-28v8.4h26.46c3.98,0,6.74,.61,8.28,1.84s2.31,3.76,2.31,7.6v5.47Z"/></g></g></svg>